<?xml version="1.0" standalone="no"?>
<!DOCTYPE svg PUBLIC "-//W3C//DTD SVG 20010904//EN"
 "http://www.w3.org/TR/2001/REC-SVG-20010904/DTD/svg10.dtd">
<svg version="1.0" xmlns="http://www.w3.org/2000/svg"
 width="960.000000pt" height="960.000000pt" viewBox="0 0 960.000000 960.000000"
 preserveAspectRatio="xMidYMid meet">
<metadata>
Created by potrace 1.14, written by Peter Selinger 2001-2017
</metadata>
<g transform="translate(0.000000,960.000000) scale(0.100000,-0.100000)"
fill="#000000" stroke="none">
<path d="M4708 9595 c-2 -1 -34 -5 -73 -9 -38 -3 -83 -8 -100 -11 -16 -3 -59
-10 -95 -16 -183 -32 -491 -160 -655 -274 -289 -200 -513 -488 -659 -847 l-15
-38 -373 -1 c-205 0 -380 -2 -388 -3 -8 -2 -48 -6 -88 -10 -40 -4 -93 -13
-118 -21 -24 -7 -44 -11 -44 -9 0 7 -177 -59 -235 -89 -55 -27 -149 -86 -191
-119 -54 -42 -207 -203 -246 -258 -96 -137 -189 -354 -203 -476 -4 -25 -10
-67 -15 -93 -5 -27 -9 -1319 -9 -3121 0 -2952 1 -3079 19 -3180 57 -326 206
-574 465 -775 129 -101 358 -203 494 -220 14 -2 46 -8 71 -14 31 -7 846 -10
2575 -8 l2530 3 88 21 c216 54 372 131 521 258 236 200 372 448 421 765 20
136 20 6152 0 6300 -65 467 -392 855 -830 988 -186 57 -220 60 -687 61 -251 1
-368 4 -368 12 0 39 -165 342 -235 430 -11 14 -31 41 -45 59 -64 87 -190 215
-307 311 -153 126 -392 249 -604 310 -102 29 -112 31 -259 55 -83 13 -332 28
-342 19z m300 -1228 c196 -69 329 -219 376 -422 21 -95 15 -257 -13 -344 -64
-194 -227 -345 -418 -386 -62 -14 -244 -13 -305 1 -69 16 -172 61 -208 90 -72
59 -92 81 -134 142 -68 99 -97 192 -102 321 -5 132 12 217 63 318 40 80 138
190 197 220 17 9 33 19 36 23 8 10 121 50 170 59 25 4 95 7 155 6 89 -2 124
-7 183 -28z m367 -2377 c117 -15 148 -22 233 -46 346 -100 640 -373 762 -708
25 -69 48 -152 55 -201 3 -23 8 -52 11 -65 3 -14 7 -70 9 -125 12 -361 -143
-704 -425 -937 -55 -45 -174 -128 -184 -128 -3 0 -35 -18 -71 -40 -36 -22 -67
-40 -70 -40 -2 0 -26 -13 -53 -29 -67 -39 -140 -81 -182 -103 -19 -10 -42 -22
-50 -28 -8 -5 -48 -28 -87 -51 -40 -23 -74 -44 -74 -48 -1 -3 -3 -18 -4 -32
-10 -76 -41 -157 -88 -227 -88 -132 -285 -204 -450 -166 -185 43 -293 152
-344 346 -12 44 -15 364 -4 423 21 115 92 224 184 282 35 22 320 192 392 233
253 146 515 305 538 327 64 61 90 158 67 254 -22 96 -64 149 -148 190 l-47 24
-601 3 c-500 2 -607 0 -635 -12 -37 -16 -79 -69 -79 -101 0 -33 -57 -122 -116
-181 -34 -35 -79 -67 -121 -86 -58 -28 -79 -32 -160 -34 -106 -2 -171 12 -241
52 -109 62 -180 144 -212 242 -14 46 -18 179 -6 227 4 17 10 50 13 75 7 60 84
219 148 305 170 228 409 368 690 405 80 10 1273 11 1350 0z m-375 -3620 c80
-27 114 -45 165 -84 166 -129 237 -286 230 -511 -5 -174 -54 -293 -170 -410
-72 -72 -174 -128 -275 -149 -84 -19 -266 -13 -340 9 -177 54 -314 187 -377
365 -37 107 -41 267 -9 395 28 108 124 242 226 313 57 40 160 82 219 89 25 3
48 7 50 9 2 2 52 2 110 0 75 -2 125 -10 171 -26z"/>
</g>
</svg>
